<svg xmlns="http://www.w3.org/2000/svg" xmlns:xlink="http://www.w3.org/1999/xlink" width="16px" height="16px">
 
<path fill-rule="evenodd"  fill="rgb(255, 255, 255)"
 d="M14.663,4.0 L8.987,4.0 L11.226,1.312 C11.262,1.319 11.292,1.333 11.330,1.333 C11.698,1.333 11.996,1.34 11.996,0.665 C11.996,0.299 11.698,0.1 11.330,0.1 C10.963,0.1 10.663,0.299 10.663,0.665 C10.663,0.746 10.683,0.820 10.709,0.891 L8.119,4.0 L7.875,4.0 L5.286,0.891 C5.312,0.820 5.331,0.746 5.331,0.665 C5.331,0.299 5.33,0.1 4.664,0.1 C4.297,0.1 3.998,0.299 3.998,0.665 C3.998,1.34 4.297,1.333 4.664,1.333 C4.702,1.333 4.734,1.319 4.768,1.312 L7.8,4.0 L1.332,4.0 C0.596,4.0 0.0,4.598 0.0,5.333 L0.0,14.671 C0.0,15.407 0.596,16.4 1.332,16.4 L14.663,16.4 C15.399,16.4 15.995,15.407 15.995,14.671 L15.995,5.333 C15.995,4.598 15.399,4.0 14.663,4.0 ZM11.996,13.337 C11.996,14.73 11.400,14.671 10.663,14.671 L2.665,14.671 C1.929,14.671 1.332,14.73 1.332,13.337 L1.332,6.668 C1.332,5.931 1.929,5.333 2.665,5.333 L10.663,5.333 C11.400,5.333 11.996,5.931 11.996,6.668 L11.996,13.337 ZM13.960,7.376 C13.434,7.376 13.8,6.949 13.8,6.423 C13.8,5.897 13.434,5.471 13.960,5.471 C14.485,5.471 14.912,5.897 14.912,6.423 C14.912,6.949 14.485,7.376 13.960,7.376 Z"/>
</svg>