<svg 
 xmlns="http://www.w3.org/2000/svg"
 xmlns:xlink="http://www.w3.org/1999/xlink"
 width="13px" height="16px">
<path fill-rule="evenodd"  fill="rgb(255, 255, 255)"
 d="M12.219,13.988 C12.399,14.426 12.346,14.940 12.71,15.347 C11.795,15.755 11.337,15.998 10.843,15.998 L2.121,15.998 C1.628,15.998 1.169,15.755 0.894,15.348 C0.618,14.940 0.565,14.426 0.751,13.972 L3.810,5.697 L3.810,3.257 C3.231,3.56 2.816,2.510 2.816,1.869 L2.816,1.470 C2.816,0.659 3.479,0.0 4.295,0.0 L8.669,0.0 C9.485,0.0 10.149,0.659 10.149,1.470 L10.149,1.869 C10.149,2.510 9.733,3.58 9.154,3.258 L9.154,5.697 L12.219,13.988 ZM7.359,14.278 C7.840,14.278 8.230,13.889 8.230,13.411 C8.230,12.934 7.840,12.546 7.359,12.546 C6.876,12.546 6.488,12.934 6.488,13.411 C6.488,13.889 6.876,14.278 7.359,14.278 ZM7.872,10.648 C7.872,10.304 7.591,10.23 7.246,10.23 C6.898,10.23 6.617,10.304 6.617,10.648 C6.617,10.992 6.898,11.272 7.246,11.272 C7.591,11.272 7.872,10.992 7.872,10.648 ZM4.612,12.610 C4.892,12.610 5.117,12.386 5.117,12.109 C5.117,11.831 4.892,11.607 4.612,11.607 C4.334,11.607 4.109,11.831 4.109,12.109 C4.109,12.386 4.334,12.610 4.612,12.610 ZM9.170,1.869 L9.170,1.470 C9.170,1.196 8.946,0.973 8.669,0.973 L4.295,0.973 C4.19,0.973 3.794,1.196 3.794,1.470 L3.794,1.869 C3.794,2.143 4.19,2.366 4.295,2.366 L4.784,2.366 L4.789,2.852 L4.789,5.870 L3.647,8.958 L3.692,8.958 C3.692,8.958 8.362,8.881 9.1,8.222 C9.12,8.210 9.23,8.202 9.34,8.192 L8.176,5.870 L8.176,2.366 L8.665,2.366 C8.946,2.366 9.170,2.143 9.170,1.869 ZM6.142,7.744 C5.765,7.744 5.460,7.440 5.460,7.65 C5.460,6.693 5.765,6.388 6.142,6.388 C6.517,6.388 6.822,6.693 6.822,7.65 C6.822,7.440 6.517,7.744 6.142,7.744 Z"/>
</svg>