<svg xmlns="http://www.w3.org/2000/svg" xmlns:xlink="http://www.w3.org/1999/xlink" width="17px" height="16px">
<path fill-rule="evenodd" fill="rgb(255, 255, 255)" d="M13.580,12.599 C13.570,12.642 13.542,12.678 13.503,12.700 C13.479,12.714 13.451,12.722 13.423,12.722 C13.407,12.722 13.392,12.719 13.376,12.715 L7.553,10.955 C7.501,10.940 7.461,10.899 7.445,10.848 C7.430,10.796 7.442,10.740 7.477,10.699 L13.274,3.896 L5.726,10.293 C5.684,10.331 5.624,10.343 5.570,10.326 L0.608,8.761 C0.546,8.741 0.501,8.686 0.496,8.622 C0.491,8.557 0.525,8.495 0.584,8.466 L16.262,0.516 C16.317,0.487 16.385,0.494 16.435,0.533 C16.484,0.572 16.506,0.636 16.492,0.697 L13.580,12.599 ZM7.648,12.203 L9.257,12.694 C9.305,12.708 9.343,12.744 9.361,12.791 C9.379,12.838 9.373,12.890 9.346,12.932 L7.737,15.454 C7.706,15.501 7.654,15.528 7.600,15.528 C7.585,15.528 7.570,15.526 7.555,15.522 C7.486,15.502 7.438,15.439 7.438,15.368 L7.438,12.356 C7.438,12.305 7.463,12.257 7.504,12.227 C7.545,12.196 7.599,12.187 7.648,12.203 Z"></path>
</svg>